<svg xmlns="http://www.w3.org/2000/svg" width="120" height="120" viewBox="0 0 120 120">
  <rect width="120" height="120" rx="24" fill="#FFFFFF" />
  <g transform="translate(18, 18)">
    <path d="M24 10c8 0 14.5 6.5 14.5 14.5v5c0 8-6.5 14.5-14.5 14.5H20c-3.3 0-6 2.7-6 6v4c0 3.3 2.7 6 6 6h18c8 0 14.5 6.5 14.5 14.5v8c0 8-6.5 14.5-14.5 14.5H20C9 78 0 69 0 58V46c0-3.3 2.7-6 6-6h18c8 0 14.5-6.5 14.5-14.5v-5C38.5 16.5 32 10 24 10z" fill="#14B8A6" />
    <circle cx="22" cy="42" r="6" fill="#0F766E" />
  </g>
</svg>
